<svg width="42" height="37" viewBox="0 0 42 37" fill="none" xmlns="http://www.w3.org/2000/svg">
<g clip-path="url(#clip0_13_89)">
<path d="M0 1.73438C0 0.773242 0.780208 0 1.75 0H5.06771C6.67188 0 8.09375 0.925 8.75729 2.3125H38.726C40.6437 2.3125 42.0438 4.11914 41.5406 5.95469L38.551 16.9607C37.9312 19.2299 35.8531 20.8125 33.4833 20.8125H12.4469L12.8406 22.8721C13.001 23.6887 13.7229 24.2812 14.5615 24.2812H35.5833C36.5531 24.2812 37.3333 25.0545 37.3333 26.0156C37.3333 26.9768 36.5531 27.75 35.5833 27.75H14.5615C12.0385 27.75 9.87292 25.9723 9.40625 23.5225L5.64375 3.93848C5.59271 3.66387 5.35208 3.46875 5.06771 3.46875H1.75C0.780208 3.46875 0 2.69551 0 1.73438ZM9.33333 33.5312C9.33333 33.0757 9.42386 32.6247 9.59975 32.2038C9.77565 31.783 10.0335 31.4006 10.3585 31.0785C10.6835 30.7564 11.0693 30.5009 11.4939 30.3265C11.9186 30.1522 12.3737 30.0625 12.8333 30.0625C13.293 30.0625 13.7481 30.1522 14.1727 30.3265C14.5974 30.5009 14.9832 30.7564 15.3082 31.0785C15.6332 31.4006 15.891 31.783 16.0669 32.2038C16.2428 32.6247 16.3333 33.0757 16.3333 33.5312C16.3333 33.9868 16.2428 34.4378 16.0669 34.8587C15.891 35.2795 15.6332 35.6619 15.3082 35.984C14.9832 36.3061 14.5974 36.5616 14.1727 36.736C13.7481 36.9103 13.293 37 12.8333 37C12.3737 37 11.9186 36.9103 11.4939 36.736C11.0693 36.5616 10.6835 36.3061 10.3585 35.984C10.0335 35.6619 9.77565 35.2795 9.59975 34.8587C9.42386 34.4378 9.33333 33.9868 9.33333 33.5312ZM33.8333 30.0625C34.7616 30.0625 35.6518 30.428 36.3082 31.0785C36.9646 31.729 37.3333 32.6113 37.3333 33.5312C37.3333 34.4512 36.9646 35.3335 36.3082 35.984C35.6518 36.6345 34.7616 37 33.8333 37C32.9051 37 32.0148 36.6345 31.3585 35.984C30.7021 35.3335 30.3333 34.4512 30.3333 33.5312C30.3333 32.6113 30.7021 31.729 31.3585 31.0785C32.0148 30.428 32.9051 30.0625 33.8333 30.0625Z" fill="black"/>
</g>
<defs>
<clipPath id="clip0_13_89">
<rect width="42" height="37" fill="white"/>
</clipPath>
</defs>
</svg>
